<?xml version="1.0" encoding="UTF-8"?>
<svg id="Ebene_1" data-name="Ebene 1" xmlns="http://www.w3.org/2000/svg" viewBox="0 0 732.87 300">
  <defs>
    <style>
      .cls-1 {
        fill: #00343f;
      }

      .cls-2 {
        opacity: .53;
      }
    </style>
  </defs>
  <g class="cls-2">
    <polygon class="cls-1" points="13.01 210 3.01 210 72.03 90 82.03 90 13.01 210"/>
    <polygon class="cls-1" points="10 250 0 250 115.04 50 125.04 50 10 250"/>
    <polygon class="cls-1" points="18.5 270 8.5 270 146.55 30 156.55 30 18.5 270"/>
    <polygon class="cls-1" points="50 250 40 250 155.04 50 165.04 50 50 250"/>
    <polygon class="cls-1" points="49.87 285 39.87 285 195.18 15 205.18 15 49.87 285"/>
    <polygon class="cls-1" points="61.24 300 51.24 300 223.8 0 233.8 0 61.24 300"/>
    <polygon class="cls-1" points="92.74 280 82.74 280 232.3 20 242.3 20 92.74 280"/>
    <polygon class="cls-1" points="120.97 265.15 110.97 265.15 243.27 35.15 253.27 35.15 120.97 265.15"/>
    <polygon class="cls-1" points="152.47 245.15 142.47 245.15 251.76 55.15 261.76 55.15 152.47 245.15"/>
    <polygon class="cls-1" points="181.1 230.15 171.1 230.15 263.13 70.15 273.13 70.15 181.1 230.15"/>
    <polygon class="cls-1" points="215.48 205.15 205.48 205.15 268.75 95.15 278.75 95.15 215.48 205.15"/>
    <polygon class="cls-1" points="229.73 215.15 219.73 215.15 294.5 85.15 304.5 85.15 229.73 215.15"/>
    <polygon class="cls-1" points="241.1 230.15 231.1 230.15 323.13 70.15 333.13 70.15 241.1 230.15"/>
    <polygon class="cls-1" points="269.73 215.15 259.73 215.15 334.5 85.15 344.5 85.15 269.73 215.15"/>
    <polygon class="cls-1" points="278.63 235 268.63 235 366.42 65 376.42 65 278.63 235"/>
    <polygon class="cls-1" points="324.51 190 314.51 190 360.53 110 370.53 110 324.51 190"/>
    <polygon class="cls-1" points="353.14 175 343.14 175 371.9 125 381.9 125 353.14 175"/>
    <polygon class="cls-1" points="353.01 210 343.01 210 412.03 90 422.03 90 353.01 210"/>
    <polygon class="cls-1" points="361.5 230 351.5 230 443.54 70 453.54 70 361.5 230"/>
    <polygon class="cls-1" points="378.63 235 368.63 235 466.42 65 476.42 65 378.63 235"/>
    <polygon class="cls-1" points="392.88 245 382.88 245 492.17 55 502.17 55 392.88 245"/>
    <polygon class="cls-1" points="418.22 235.15 408.22 235.15 506.01 65.15 516.01 65.15 418.22 235.15"/>
    <polygon class="cls-1" points="449.73 215.15 439.73 215.15 514.5 85.15 524.5 85.15 449.73 215.15"/>
    <polygon class="cls-1" points="478.35 200.15 468.35 200.15 525.88 100.15 535.88 100.15 478.35 200.15"/>
    <polygon class="cls-1" points="483.97 225.15 473.97 225.15 560.26 75.15 570.26 75.15 483.97 225.15"/>
    <polygon class="cls-1" points="509.73 215.15 499.73 215.15 574.5 85.15 584.5 85.15 509.73 215.15"/>
    <polygon class="cls-1" points="535.48 205.15 525.48 205.15 588.75 95.15 598.75 95.15 535.48 205.15"/>
    <polygon class="cls-1" points="561.23 195.15 551.23 195.15 603 105.15 613 105.15 561.23 195.15"/>
    <polygon class="cls-1" points="592.73 175.15 582.73 175.15 611.5 125.15 621.5 125.15 592.73 175.15"/>
    <polygon class="cls-1" points="618.49 165.15 608.49 165.15 625.74 135.15 635.74 135.15 618.49 165.15"/>
    <polygon class="cls-1" points="641.36 160.15 631.36 160.15 642.87 140.15 652.87 140.15 641.36 160.15"/>
    <polygon class="cls-1" points="655.61 170.15 645.61 170.15 668.62 130.15 678.62 130.15 655.61 170.15"/>
    <polygon class="cls-1" points="669.86 180.15 659.86 180.15 694.37 120.15 704.37 120.15 669.86 180.15"/>
    <polygon class="cls-1" points="692.73 175.15 682.73 175.15 711.5 125.15 721.5 125.15 692.73 175.15"/>
    <polygon class="cls-1" points="721.36 160.15 711.36 160.15 722.87 140.15 732.87 140.15 721.36 160.15"/>
  </g>
</svg>