<?xml version="1.0" encoding="UTF-8"?>
<svg id="Ebene_1" data-name="Ebene 1" xmlns="http://www.w3.org/2000/svg" viewBox="0 0 732.87 300">
  <defs>
    <style>
      .cls-1 {
        fill: #00343f;
      }

      .cls-2 {
        opacity: .53;
      }
    </style>
  </defs>
  <g class="cls-2">
    <polygon class="cls-1" points="13.01 210 3.01 210 72.03 90 82.03 90 13.01 210"/>
    <polygon class="cls-1" points="10 250 0 250 115.04 50 125.04 50 10 250"/>
    <polygon class="cls-1" points="18.5 270 8.5 270 146.55 30 156.55 30 18.5 270"/>
    <polygon class="cls-1" points="50 250 40 250 155.04 50 165.04 50 50 250"/>
    <polygon class="cls-1" points="49.87 285 39.87 285 195.18 15 205.18 15 49.87 285"/>
    <polygon class="cls-1" points="61.24 300 51.24 300 223.8 0 233.8 0 61.24 300"/>
    <polygon class="cls-1" points="92.74 280 82.74 280 232.3 20 242.3 20 92.74 280"/>
    <polygon class="cls-1" points="120.97 265.15 110.97 265.15 243.27 35.15 253.27 35.15 120.97 265.15"/>
    <polygon class="cls-1" points="152.47 245.15 142.47 245.15 251.76 55.15 261.76 55.15 152.47 245.15"/>
    <polygon class="cls-1" points="181.1 230.15 171.1 230.15 263.13 70.15 273.13 70.15 181.1 230.15"/>
    <polygon class="cls-1" points="215.48 205.15 205.48 205.15 268.75 95.15 278.75 95.15 215.48 205.15"/>
    <polygon class="cls-1" points="229.73 215.15 219.73 215.15 294.5 85.15 304.5 85.15 229.73 215.15"/>
    <polygon class="cls-1" points="241.1 230.15 231.1 230.15 323.13 70.15 333.13 70.15 241.1 230.15"/>
    <polygon class="cls-1" points="269.73 215.15 259.73 215.15 334.5 85.15 344.5 85.15 269.73 215.15"/>
    <polygon class="cls-1" points="278.63 235 268.63 235 366.42 65 376.42 65 278.63 235"/>
    <polygon class="cls-1" points="324.51 190 314.51 190 360.53 110 370.53 110 324.51 190"/>
    <polygon class="cls-1" points="353.14 175 343.14 175 371.9 125 381.9 125 353.14 175"/>
    <polygon class="cls-1" points="353.01 210 343.01 210 412.03 90 422.03 90 353.01 210"/>
    <polygon class="cls-1" points="361.5 230 351.5 230 443.54 70 453.54 70 361.5 230"/>
    <polygon class="cls-1" points="378.63 235 368.63 235 466.42 65 476.42 65 378.63 235"/>
    <polygon class="cls-1" points="392.88 245 382.88 245 492.17 55 502.17 55 392.88 245"/>
    <polygon class="cls-1" points="418.22 235.15 408.22 235.15 506.01 65.15 516.01 65.15 418.22 235.15"/>
    <polygon class="cls-1" points="449.73 215.15 439.73 215.15 514.5 85.15 524.5 85.15 449.73 215.15"/>
    <polygon class="cls-1" points="478.35 200.15 468.35 200.15 525.88 100.15 535.88 100.15 478.35 200.15"/>
    <polygon class="cls-1" points="483.97 225.15 473.97 225.15 560.26 75.15 570.26 75.15 483.97 225.15"/>
    <polygon class="cls-1" points="509.73 215.15 499.73 215.15 574.5 85.15 584.5 85.15 509.73 215.15"/>
    <polygon class="cls-1" points="535.48 205.15 525.48 205.15 588.75 95.15 598.75 95.15 535.48 205.15"/>
    <polygon class="cls-1" points="561.23 195.15 551.23 195.15 603 105.15 613 105.15 561.23 195.15"/>
    <polygon class="cls-1" points="592.73 175.15 582.73 175.15 611.5 125.15 621.5 125.15 592.73 175.15"/>
    <polygon class="cls-1" points="618.49 165.15 608.49 165.15 625.74 135.15 635.74 135.15 618.49 165.15"/>
    <polygon class="cls-1" points="641.36 160.15 631.36 160.15 642.87 140.15 652.87 140.15 641.36 160.15"/>
    <polygon class="cls-1" points="655.61 170.15 645.61 170.15 668.62 130.15 678.62 130.15 655.61 170.15"/>
    <polygon class="cls-1" points="669.86 180.15 659.86 180.15 694.37 120.15 704.37 120.15 669.86 180.15"/>
    <polygon class="cls-1" points="692.73 175.15 682.73 175.15 711.5 125.15 721.5 125.15 692.73 175.15"/>
    <polygon class="cls-1" points="721.36 160.15 711.36 160.15 722.87 140.15 732.87 140.15 721.36 160.15"/>
  </g>
  <g>
    <path d="m303.45,71.52c4.58,0,6.87,1.96,6.87,5.89,0,1.8-.58,3.77-1.72,5.89l-61.38,106.06c-1.8,3.28-4.54,6.06-8.22,8.35-3.68,2.29-7.16,3.44-10.43,3.44h-82.49c-3.11,0-6.5,1.15-10.17,3.44s-6.41,5.08-8.21,8.36l-39.07,67.74c-2.45,4.25-5.07,6.38-7.86,6.38-1.47,0-2.7-.82-3.68-2.46l-32.41-55.24c-1.14-1.8-1.72-4.09-1.72-6.87,0-4.09.98-7.78,2.95-11.05L120.06,83.3c1.8-3.27,4.5-6.05,8.1-8.35,3.6-2.29,7.04-3.44,10.31-3.44h164.98Zm-84.25,23.55c1.17-2.12,1.76-4.08,1.76-5.88,0-3.92-2.21-5.88-6.63-5.88-3.28,0-6.76,1.15-10.44,3.44-3.68,2.29-6.43,5.07-8.22,8.35l-47.59,82.51c-1.33,2.13-2,4.09-2,5.88,0,3.92,2.29,5.88,6.87,5.88,3.28,0,6.71-1.14,10.32-3.43,3.6-2.29,6.39-5.07,8.35-8.35l47.58-82.51Z"/>
    <path d="m395.34,127.64c2.6,0,3.9,1.11,3.9,3.34,0,1.02-.37,2.14-1.11,3.34l-34.66,60.14c-1.02,1.86-2.58,3.43-4.66,4.73-2.09,1.3-4.06,1.95-5.92,1.95h-93.55c-2.51,0-3.76-1.11-3.76-3.34,0-1.02.32-2.13.97-3.34l34.66-60.14c1.11-1.86,2.69-3.43,4.73-4.73,2.04-1.3,3.99-1.95,5.85-1.95h33.41c2.6,0,3.9,1.12,3.9,3.35,0,1.02-.36,2.14-1.09,3.35l-30.77,53.46c-.76,1.21-1.14,2.32-1.14,3.33,0,2.23,1.3,3.34,3.9,3.34,1.86,0,3.8-.65,5.85-1.95,2.04-1.3,3.62-2.88,4.73-4.73l30.77-53.46c1.11-1.86,2.69-3.43,4.73-4.73,2.04-1.3,3.99-1.95,5.85-1.95h33.41Z"/>
    <path d="m457.71,111.63c.56.93.83,2.18.83,3.76,0,2.32-.56,4.46-1.67,6.4l-41.9,72.67c-1.11,1.86-2.69,3.43-4.73,4.73-2.04,1.3-3.99,1.95-5.85,1.95h-33.41c-2.6,0-3.9-1.11-3.9-3.34,0-1.02.37-2.13,1.11-3.34l42.46-73.5,22.13-38.42c1.39-2.41,2.88-3.62,4.45-3.62.84,0,1.48.42,1.95,1.25l18.52,31.46Z"/>
    <path d="m512.28,154.37c-2.51,0-3.76-1.11-3.76-3.34,0-1.02.32-2.13.97-3.34l3.9-6.68c.65-1.21.97-2.32.97-3.34,0-2.23-1.3-3.34-3.9-3.34-1.77,0-3.69.65-5.78,1.95-2.09,1.3-3.65,2.88-4.67,4.73l-7.8,13.36c-.64,1.21-.97,2.32-.97,3.34,0,2.23,1.3,3.35,3.9,3.35h46.78c2.51,0,3.76,1.11,3.76,3.34,0,1.02-.33,2.14-.97,3.34l-15.45,26.73c-1.02,1.86-2.58,3.43-4.66,4.73-2.09,1.3-4.06,1.95-5.92,1.95h-93.55c-2.51,0-3.76-1.11-3.76-3.34,0-1.02.32-2.13.97-3.34l7.66-13.36c1.11-1.86,2.69-3.43,4.73-4.73,2.04-1.3,3.99-1.95,5.85-1.95h33.41c2.6,0,3.9,1.11,3.9,3.34,0,1.02-.37,2.14-1.11,3.34l-3.76,6.68c-.74,1.21-1.11,2.32-1.11,3.34,0,2.23,1.29,3.34,3.88,3.34,1.84,0,3.78-.65,5.81-1.96,2.03-1.31,3.6-2.9,4.71-4.77l7.67-13.36c.79-1.2,1.18-2.31,1.18-3.32,0-2.21-1.3-3.32-3.9-3.32h-46.78c-2.6,0-3.9-1.11-3.9-3.34,0-1.02.37-2.13,1.11-3.34l15.31-26.73c1.11-1.86,2.69-3.43,4.73-4.73,2.04-1.3,3.99-1.95,5.85-1.95h93.55c2.6,0,3.9,1.11,3.9,3.34,0,1.02-.37,2.14-1.11,3.34l-7.66,13.36c-1.02,1.86-2.58,3.43-4.66,4.73-2.09,1.3-4.06,1.95-5.92,1.95h-33.41Z"/>
    <path d="m598.75,169.68c-2.04,1.29-3.63,2.86-4.74,4.71l-7.67,13.31c-.66,1.22-.98,2.35-.98,3.38,0,2.25,1.3,3.38,3.9,3.38,1.86,0,3.8-.65,5.85-1.95,2.04-1.3,3.62-2.88,4.73-4.73l3.9-6.68c1.02-1.86,2.55-3.43,4.59-4.73,2.04-1.3,3.99-1.95,5.85-1.95h33.41c2.6,0,3.9,1.11,3.9,3.34,0,1.02-.33,2.14-.97,3.34l-7.8,13.36c-1.02,1.86-2.58,3.43-4.66,4.73-2.09,1.3-4.06,1.95-5.92,1.95h-93.55c-2.51,0-3.76-1.11-3.76-3.34,0-1.02.33-2.13.97-3.34l34.8-60.14c1.02-1.86,2.55-3.43,4.59-4.73,2.04-1.3,3.99-1.95,5.85-1.95h93.55c2.6,0,3.9,1.11,3.9,3.34,0,1.02-.33,2.14-.98,3.34l-15.47,26.73c-1.12,1.86-2.69,3.43-4.74,4.73-2.04,1.3-4,1.95-5.86,1.95h-46.84c-1.86,0-3.81.65-5.86,1.94Zm6.89-15.33c-.62,1.21-.93,2.33-.93,3.35,0,2.24,1.3,3.35,3.9,3.35,1.76,0,3.69-.65,5.78-1.95,2.09-1.3,3.64-2.88,4.66-4.73l7.8-13.36c.65-1.21.97-2.32.97-3.34,0-2.23-1.26-3.34-3.77-3.34-1.86,0-3.84.65-5.94,1.94s-3.65,2.86-4.68,4.71l-7.8,13.36Z"/>
  </g>
</svg>